<?xml version="1.0" standalone="no"?><!DOCTYPE svg PUBLIC "-//W3C//DTD SVG 1.1//EN" "http://www.w3.org/Graphics/SVG/1.1/DTD/svg11.dtd"><svg t="1617955933642" class="icon" viewBox="0 0 1026 1024" version="1.1" xmlns="http://www.w3.org/2000/svg" p-id="1418" xmlns:xlink="http://www.w3.org/1999/xlink" width="200.390625" height="200"><defs><style type="text/css"></style></defs><path d="M269.7 903.4c-72 0-139.7-28-190.7-78.9-50.9-50.6-79-118.3-79-190.5 0-71.1 27.7-138.1 77.9-188.9 49.5-50 115.5-78.4 185.7-80l13.7-0.3 0.9-13.7c6.3-95.2 48.4-183.8 118.6-249.3C467 36.1 558.4 0 654.2 0c96.6 0 188.1 36.5 257.6 102.8l0.7 0.7 3.6 2.7c3 2.3 3 2.4 7.3 6.7 8.1 8.1 12.3 16.5 12.3 24.9-0.2 14.9-12.1 26.8-27.1 27-9.9 0-17.7-3.9-23.7-12l-1.1-1.5-1.5-1.2c-3.3-2.7-4.1-3.6-5.4-5.2l-0.5-0.6-0.4-0.4c-0.3-0.3-0.5-0.6-0.8-0.9l-0.2-0.2c-0.8-0.9-1.8-2-3.2-3.4l-0.2-0.2-0.2-0.2c-58.7-54-135.8-83.7-217-83.7C476.8 55.2 332.2 200.2 332.2 378.4c0 3.3 0 6.7 0.3 10.2 0.7 9.4 1.2 16.2-5.7 24-7.3 8.2-14.4 9.1-17.1 9.1h-38.4C151.6 421.7 54.2 519 54.2 638.7c0 119.6 97.4 217 217.1 217h68.7c7.4 0 14.7 3.1 19.4 8.4 3.3 3.6 5 7.8 4.6 11.8l-0.1 0.7v0.7c-0.2 14.5-12.3 26.3-27 26.3h-67.2z" fill="#FFC64B" p-id="1419"></path><path d="M888.6 1024c-25.4 0-46-20.6-46-46s20.6-46 46-46 46 20.6 46 46-20.6 46-46 46zM472.4 1023.8c-5.6 0-11.1-0.9-16.6-2.8-11-4.5-19.9-13.4-25-25.1-4.9-11.3-5.3-24-1-34.8 7.1-17.4 24.8-29.1 44-29.1 5 0 10.4 1.1 15.9 3.4l0.1 0.1 0.2 0.1c10.4 3.8 16.7 8.8 21 16.5l2.9 5.1h77.9c7.5 0 14.7-3 20.1-8.4l126.9-126.3c6.2-6 14.4-9.2 23.6-9.2h172.3l2.6-5.9c7.2-16.1 22.2-25.4 41.2-25.4 12.6 0 24.3 4.8 33 13.6 8.3 8.4 12.8 19.5 12.6 31.3v0.1c0 26.4-19.4 45.5-46 45.5-12 0-23.4-5-32.1-14l-1.7-1.8-5.9-2H779.5c-7.5 0-15.3 3.6-21.7 10L633.6 991.1c-6 6.1-14.8 9.8-23.7 9.8h-97.4l-3 4.4c-10.6 15.3-26 18.5-37.1 18.5z m169.7-237.2c-15.1 0-29-7.6-37-20.5l-2.9-4.7h-87l-2.9 4.7c-7.8 12.4-21.6 19.8-37 19.8-13 0-24.9-4.7-33.5-13.2-8.5-8.5-13.2-20.2-13.2-33 0-26.5 19.4-45.7 46-45.7 11.2 0 26.7 3.2 36.6 18.7l3 4.6h88.5l3-4c8.8-11.7 21.9-18.6 35.1-18.6h1.3c27.1 0 46.7 19.2 46.7 45.7 0 26.3-19.8 46.2-46 46.2h-0.7zM909.2 706.1c-13.6 0-27.4-7.2-36.1-18.8l-3-4h-70.2c-2.2 0-4.5-1.1-6.4-3L683.8 570.7l-0.1-0.1c-5.6-5.3-12.7-8.2-19.9-8.2H548.7l-2.9 4.7c-8.1 12.8-22.1 20.4-37.5 20.4-14.6 0-27.3-5.5-35.8-15.4-8.8-10.3-12.4-24.1-10.1-39.1 3.4-21.2 22.9-37.2 45.4-37.2 14.2 0 27.5 6.8 36.6 18.7l3 3.9h133.5c9.1 0 17.5 3.3 23.6 9.4l0.2 0.2 12.5 11.8 91.4 89.3c5.1 5.1 12.2 7.9 19.8 7.9h40.3l2.9-4.7c7.9-12.6 21.6-19.8 37.5-19.8 14.4 0 27.1 5.6 35.8 15.9 8.8 10.5 12.4 24.6 10.1 39.7-3.4 21.2-23.3 37.9-45.4 37.9h-0.4z" fill="#212121" p-id="1420"></path></svg>